<svg xmlns="http://www.w3.org/2000/svg" width="25" height="25" viewBox="0 0 25 25"><g transform="translate(0 -1027.362)"><circle cx="12.5" cy="1039.862" r="12.5" fill="#ffa40b" fill-rule="evenodd"/><path fill="#ff7712" style="line-height:normal;text-indent:0;text-align:start;text-decoration-line:none;text-decoration-style:solid;text-decoration-color:#000;text-transform:none;block-progression:tb;isolation:auto;mix-blend-mode:normal" d="M 13.904297 24.90625 A 12.5 12.5 0 0 0 14.625 24.818359 A 12.5 12.5 0 0 0 15.84375 24.544922 A 12.5 12.5 0 0 0 17.029297 24.150391 A 12.5 12.5 0 0 0 18.169922 23.640625 A 12.5 12.5 0 0 0 19.253906 23.017578 A 12.5 12.5 0 0 0 20.269531 22.291016 A 12.5 12.5 0 0 0 21.208984 21.466797 A 12.5 12.5 0 0 0 22.060547 20.552734 A 12.5 12.5 0 0 0 22.816406 19.558594 A 12.5 12.5 0 0 0 23.470703 18.492188 A 12.5 12.5 0 0 0 24.013672 17.367188 A 12.5 12.5 0 0 0 24.441406 16.193359 A 12.5 12.5 0 0 0 24.564453 15.712891 L 16.863281 8.0117188 L 8.1523438 8.0117188 L 8.0078125 8.2597656 L 5.8242188 12 L 7.0097656 13.185547 L 7.0097656 18.011719 L 13.904297 24.90625 z " color="#000" font-family="sans-serif" font-weight="400" transform="translate(0 1027.362)"/><path fill="#fff" d="M 3.15625,3.0078125 3.0117188,3.2558594 0.828125,6.9960938 l 1.1855469,0 0,6.0117182 7.9921871,0 3.003907,0 0,-6.0117182 1.185546,0 -2.328124,-3.9882813 -8.710938,0 z m 0.5742188,1 0.2773437,0 0,1.9882813 -1.4375,0 1.1601563,-1.9882813 z m 1.2773437,0 1,0 0,1.9882813 -1,0 0,-1.9882813 z m 2,0 1,0 0,1.9882813 -1,0 0,-1.9882813 z m 2,0 0.9999995,0 0,1.9882813 -0.9999995,0 0,-1.9882813 z m 1.9999995,0 0.285157,0 1.160156,1.9882813 -1.445313,0 0,-1.9882813 z m -1.001953,2.9882813 2.003907,0 0,5.0117182 -2.003907,0 0,-5.0117182 z m -6.9921871,0.011719 5.9921875,0 0,4.9999992 -5.9921875,0 0,-4.9999992 z" color="#000" font-family="sans-serif" font-weight="400" overflow="visible" transform="translate(4.996 1032.365)" style="line-height:normal;text-indent:0;text-align:start;text-decoration-line:none;text-decoration-style:solid;text-decoration-color:#000;text-transform:none;block-progression:tb;isolation:auto;mix-blend-mode:normal"/></g></svg>